<svg width="708" height="309" viewBox="0 0 708 309" fill="none" xmlns="http://www.w3.org/2000/svg">
<path d="M708 98.4643V98.4643C739.742 66.9345 720.275 12.6887 675.728 8.53733L665.723 7.60504C654.49 6.55823 643.198 8.84267 633.255 14.1733L598.161 32.9877C580.355 42.534 560.588 47.8474 540.395 48.5152L536.593 48.641C509.954 49.522 483.776 41.5327 462.168 25.9272L444.519 13.1807C431.018 3.42936 414.304 -0.80381 397.788 1.34459V1.34459C375.513 4.24227 356.282 18.3688 346.857 38.7592L340.868 51.7132C338.627 56.5617 336.8 61.6586 335.439 66.8239V66.8239C320.635 123.032 261.543 156.177 206.169 138.508L156 122.5V122.5C122.905 114.778 89.839 135.432 82.2607 168.56L81.004 174.054C79.3507 181.281 79.1316 188.762 80.3591 196.074L82.3367 207.853C86.535 232.86 69.274 256.404 44.1622 259.922L30.4554 261.842C8.20722 264.959 -5.10461 288.248 3.5 309V309H176.026H708V98.4643Z" fill="#1B1B1B"/>
</svg>
