<svg width="934" height="223" viewBox="0 0 934 223" fill="none" xmlns="http://www.w3.org/2000/svg">
<path d="M934 128.778L922.485 118.061C899.798 96.946 870.775 83.9129 839.921 80.9852L836.99 80.7071C825.063 79.5753 813.034 80.2215 801.296 82.6244L796.722 83.5608C770.196 88.9913 742.599 84.3457 719.313 70.5301L691.569 54.0699C667.397 39.7281 636.728 42.641 615.688 61.2772L610.34 66.0138C586.241 87.3588 549.33 84.8283 528.37 60.3942V60.3942C506.938 35.4103 468.971 33.4164 445.04 56.018L404.232 94.5591C382.623 114.967 350.337 119.154 324.238 104.934V104.934C308.983 96.6218 297.445 82.8358 291.952 66.3546L290.061 60.6816C284.806 44.9167 274.985 31.0688 261.845 20.8959L260.113 19.5552C244.158 7.20266 224.551 0.5 204.373 0.5H201.068C183.337 0.5 165.921 5.1804 150.579 14.0682L123.666 29.6588C109.571 37.8241 92.6507 39.5502 77.1974 34.3991V34.3991C54.0686 26.6895 28.599 34.5875 13.8901 54.0304L12.6359 55.6881C1.50897 70.3962 -2.20085 89.4191 2.58424 107.23L33.6865 223H222.05H798.426L934 128.778Z" fill="#275DAD"/>
</svg>
