<svg width="758" height="374" viewBox="0 0 758 374" fill="none" xmlns="http://www.w3.org/2000/svg">
<path d="M0 69.5L1.11065 67.2787C26.9231 15.6539 85.5791 -10.5829 141.268 4.58618L144.704 5.52212C167.312 11.6801 187.369 24.8819 201.965 43.2116V43.2116C227.763 75.6095 269.544 90.8129 310.131 82.5712L335.466 77.4264C360.474 72.3482 386.476 77.3362 407.83 91.3084V91.3084C437.257 110.563 474.805 112.37 505.945 96.0291L521.154 88.0478C543.573 76.2835 570.032 74.9773 593.501 84.4765V84.4765C622.508 96.2174 642.866 122.766 646.68 153.825L647.5 160.5V176.095C647.5 210.257 669.674 240.467 702.266 250.706V250.706C743.908 263.789 766.781 308.428 753.077 349.87L745 374.296H531.974H0V69.5Z" fill="#1B1B1B"/>
</svg>
